<?xml version="1.0" encoding="utf-8" standalone="no"?>
<!DOCTYPE svg PUBLIC "-//W3C//DTD SVG 1.1//EN"
  "http://www.w3.org/Graphics/SVG/1.1/DTD/svg11.dtd">
<svg xmlns:xlink="http://www.w3.org/1999/xlink" width="216pt" height="216pt" viewBox="0 0 216 216" xmlns="http://www.w3.org/2000/svg" version="1.1">
 <metadata>
  <rdf:RDF xmlns:dc="http://purl.org/dc/elements/1.1/" xmlns:cc="http://creativecommons.org/ns#" xmlns:rdf="http://www.w3.org/1999/02/22-rdf-syntax-ns#">
   <cc:Work>
    <dc:type rdf:resource="http://purl.org/dc/dcmitype/StillImage"/>
    <dc:date>2023-01-28T17:31:00.723719</dc:date>
    <dc:format>image/svg+xml</dc:format>
    <dc:creator>
     <cc:Agent>
      <dc:title>Matplotlib v3.6.3, https://matplotlib.org/</dc:title>
     </cc:Agent>
    </dc:creator>
   </cc:Work>
  </rdf:RDF>
 </metadata>
 <defs>
  <style type="text/css">*{stroke-linejoin: round; stroke-linecap: butt}</style>
 </defs>
 <g id="figure_1">
  <g id="patch_1">
   <path d="M 0 216 
L 216 216 
L 216 0 
L 0 0 
z
" style="fill: #ffffff"/>
  </g>
  <g id="axes_1">
   <g id="patch_2">
    <path d="M 27 192.24 
L 194.4 192.24 
L 194.4 25.92 
L 27 25.92 
z
" style="fill: #ffffff"/>
   </g>
   <g id="patch_3">
    <path d="M 104.692823 192.24 
L 104.692823 25.92 
L 108.697608 25.92 
L 108.697608 192.24 
z
" clip-path="url(#p709e93cf99)" style="fill: #ff0000; opacity: 0.5; stroke: #ff0000; stroke-linejoin: miter"/>
   </g>
   <g id="matplotlib.axis_1">
    <g id="xtick_1">
     <g id="line2d_1">
      <defs>
       <path id="m1bdce9d6bc" d="M 0 0 
L 0 3.5 
" style="stroke: #000000; stroke-width: 0.8"/>
      </defs>
      <g>
       <use xlink:href="#m1bdce9d6bc" x="34.609091" y="192.24" style="stroke: #000000; stroke-width: 0.8"/>
      </g>
     </g>
     <g id="text_1">
      <!-- 0 -->
      <g transform="translate(31.427841 206.838437) scale(0.1 -0.1)">
       <defs>
        <path id="DejaVuSans-30" d="M 2034 4250 
Q 1547 4250 1301 3770 
Q 1056 3291 1056 2328 
Q 1056 1369 1301 889 
Q 1547 409 2034 409 
Q 2525 409 2770 889 
Q 3016 1369 3016 2328 
Q 3016 3291 2770 3770 
Q 2525 4250 2034 4250 
z
M 2034 4750 
Q 2819 4750 3233 4129 
Q 3647 3509 3647 2328 
Q 3647 1150 3233 529 
Q 2819 -91 2034 -91 
Q 1250 -91 836 529 
Q 422 1150 422 2328 
Q 422 3509 836 4129 
Q 1250 4750 2034 4750 
z
" transform="scale(0.015625)"/>
       </defs>
       <use xlink:href="#DejaVuSans-30"/>
      </g>
     </g>
    </g>
    <g id="xtick_2">
     <g id="line2d_2">
      <g>
       <use xlink:href="#m1bdce9d6bc" x="74.656938" y="192.24" style="stroke: #000000; stroke-width: 0.8"/>
      </g>
     </g>
     <g id="text_2">
      <!-- 10 -->
      <g transform="translate(68.294438 206.838437) scale(0.1 -0.1)">
       <defs>
        <path id="DejaVuSans-31" d="M 794 531 
L 1825 531 
L 1825 4091 
L 703 3866 
L 703 4441 
L 1819 4666 
L 2450 4666 
L 2450 531 
L 3481 531 
L 3481 0 
L 794 0 
L 794 531 
z
" transform="scale(0.015625)"/>
       </defs>
       <use xlink:href="#DejaVuSans-31"/>
       <use xlink:href="#DejaVuSans-30" x="63.623047"/>
      </g>
     </g>
    </g>
    <g id="xtick_3">
     <g id="line2d_3">
      <g>
       <use xlink:href="#m1bdce9d6bc" x="114.704785" y="192.24" style="stroke: #000000; stroke-width: 0.8"/>
      </g>
     </g>
     <g id="text_3">
      <!-- 20 -->
      <g transform="translate(108.342285 206.838437) scale(0.1 -0.1)">
       <defs>
        <path id="DejaVuSans-32" d="M 1228 531 
L 3431 531 
L 3431 0 
L 469 0 
L 469 531 
Q 828 903 1448 1529 
Q 2069 2156 2228 2338 
Q 2531 2678 2651 2914 
Q 2772 3150 2772 3378 
Q 2772 3750 2511 3984 
Q 2250 4219 1831 4219 
Q 1534 4219 1204 4116 
Q 875 4013 500 3803 
L 500 4441 
Q 881 4594 1212 4672 
Q 1544 4750 1819 4750 
Q 2544 4750 2975 4387 
Q 3406 4025 3406 3419 
Q 3406 3131 3298 2873 
Q 3191 2616 2906 2266 
Q 2828 2175 2409 1742 
Q 1991 1309 1228 531 
z
" transform="scale(0.015625)"/>
       </defs>
       <use xlink:href="#DejaVuSans-32"/>
       <use xlink:href="#DejaVuSans-30" x="63.623047"/>
      </g>
     </g>
    </g>
    <g id="xtick_4">
     <g id="line2d_4">
      <g>
       <use xlink:href="#m1bdce9d6bc" x="154.752632" y="192.24" style="stroke: #000000; stroke-width: 0.8"/>
      </g>
     </g>
     <g id="text_4">
      <!-- 30 -->
      <g transform="translate(148.390132 206.838437) scale(0.1 -0.1)">
       <defs>
        <path id="DejaVuSans-33" d="M 2597 2516 
Q 3050 2419 3304 2112 
Q 3559 1806 3559 1356 
Q 3559 666 3084 287 
Q 2609 -91 1734 -91 
Q 1441 -91 1130 -33 
Q 819 25 488 141 
L 488 750 
Q 750 597 1062 519 
Q 1375 441 1716 441 
Q 2309 441 2620 675 
Q 2931 909 2931 1356 
Q 2931 1769 2642 2001 
Q 2353 2234 1838 2234 
L 1294 2234 
L 1294 2753 
L 1863 2753 
Q 2328 2753 2575 2939 
Q 2822 3125 2822 3475 
Q 2822 3834 2567 4026 
Q 2313 4219 1838 4219 
Q 1578 4219 1281 4162 
Q 984 4106 628 3988 
L 628 4550 
Q 988 4650 1302 4700 
Q 1616 4750 1894 4750 
Q 2613 4750 3031 4423 
Q 3450 4097 3450 3541 
Q 3450 3153 3228 2886 
Q 3006 2619 2597 2516 
z
" transform="scale(0.015625)"/>
       </defs>
       <use xlink:href="#DejaVuSans-33"/>
       <use xlink:href="#DejaVuSans-30" x="63.623047"/>
      </g>
     </g>
    </g>
   </g>
   <g id="matplotlib.axis_2">
    <g id="ytick_1">
     <g id="line2d_5">
      <defs>
       <path id="ma3b5372e46" d="M 0 0 
L -3.5 0 
" style="stroke: #000000; stroke-width: 0.8"/>
      </defs>
      <g>
       <use xlink:href="#ma3b5372e46" x="27" y="32.113254" style="stroke: #000000; stroke-width: 0.8"/>
      </g>
     </g>
     <g id="text_5">
      <!-- $\mathdefault{10^{0}}$ -->
      <g transform="translate(2.4 35.912472) scale(0.1 -0.1)">
       <use xlink:href="#DejaVuSans-31" transform="translate(0 0.765625)"/>
       <use xlink:href="#DejaVuSans-30" transform="translate(63.623047 0.765625)"/>
       <use xlink:href="#DejaVuSans-30" transform="translate(128.203125 39.046875) scale(0.7)"/>
      </g>
     </g>
    </g>
    <g id="ytick_2">
     <g id="line2d_6">
      <defs>
       <path id="m449243a7da" d="M 0 0 
L -2 0 
" style="stroke: #000000; stroke-width: 0.6"/>
      </defs>
      <g>
       <use xlink:href="#m449243a7da" x="27" y="139.191356" style="stroke: #000000; stroke-width: 0.6"/>
      </g>
     </g>
     <g id="text_6">
      <!-- $\mathdefault{8\times10^{-1}}$ -->
      <g transform="translate(-20.5 142.990575) scale(0.1 -0.1)">
       <defs>
        <path id="DejaVuSans-38" d="M 2034 2216 
Q 1584 2216 1326 1975 
Q 1069 1734 1069 1313 
Q 1069 891 1326 650 
Q 1584 409 2034 409 
Q 2484 409 2743 651 
Q 3003 894 3003 1313 
Q 3003 1734 2745 1975 
Q 2488 2216 2034 2216 
z
M 1403 2484 
Q 997 2584 770 2862 
Q 544 3141 544 3541 
Q 544 4100 942 4425 
Q 1341 4750 2034 4750 
Q 2731 4750 3128 4425 
Q 3525 4100 3525 3541 
Q 3525 3141 3298 2862 
Q 3072 2584 2669 2484 
Q 3125 2378 3379 2068 
Q 3634 1759 3634 1313 
Q 3634 634 3220 271 
Q 2806 -91 2034 -91 
Q 1263 -91 848 271 
Q 434 634 434 1313 
Q 434 1759 690 2068 
Q 947 2378 1403 2484 
z
M 1172 3481 
Q 1172 3119 1398 2916 
Q 1625 2713 2034 2713 
Q 2441 2713 2670 2916 
Q 2900 3119 2900 3481 
Q 2900 3844 2670 4047 
Q 2441 4250 2034 4250 
Q 1625 4250 1398 4047 
Q 1172 3844 1172 3481 
z
" transform="scale(0.015625)"/>
        <path id="DejaVuSans-d7" d="M 4488 3438 
L 3059 2003 
L 4488 575 
L 4116 197 
L 2681 1631 
L 1247 197 
L 878 575 
L 2303 2003 
L 878 3438 
L 1247 3816 
L 2681 2381 
L 4116 3816 
L 4488 3438 
z
" transform="scale(0.015625)"/>
        <path id="DejaVuSans-2212" d="M 678 2272 
L 4684 2272 
L 4684 1741 
L 678 1741 
L 678 2272 
z
" transform="scale(0.015625)"/>
       </defs>
       <use xlink:href="#DejaVuSans-38" transform="translate(0 0.684375)"/>
       <use xlink:href="#DejaVuSans-d7" transform="translate(83.105469 0.684375)"/>
       <use xlink:href="#DejaVuSans-31" transform="translate(186.376953 0.684375)"/>
       <use xlink:href="#DejaVuSans-30" transform="translate(250 0.684375)"/>
       <use xlink:href="#DejaVuSans-2212" transform="translate(314.580078 38.965625) scale(0.7)"/>
       <use xlink:href="#DejaVuSans-31" transform="translate(373.232422 38.965625) scale(0.7)"/>
      </g>
     </g>
    </g>
    <g id="ytick_3">
     <g id="line2d_7">
      <g>
       <use xlink:href="#m449243a7da" x="27" y="82.671758" style="stroke: #000000; stroke-width: 0.6"/>
      </g>
     </g>
     <g id="text_7">
      <!-- $\mathdefault{9\times10^{-1}}$ -->
      <g transform="translate(-20.5 86.470976) scale(0.1 -0.1)">
       <defs>
        <path id="DejaVuSans-39" d="M 703 97 
L 703 672 
Q 941 559 1184 500 
Q 1428 441 1663 441 
Q 2288 441 2617 861 
Q 2947 1281 2994 2138 
Q 2813 1869 2534 1725 
Q 2256 1581 1919 1581 
Q 1219 1581 811 2004 
Q 403 2428 403 3163 
Q 403 3881 828 4315 
Q 1253 4750 1959 4750 
Q 2769 4750 3195 4129 
Q 3622 3509 3622 2328 
Q 3622 1225 3098 567 
Q 2575 -91 1691 -91 
Q 1453 -91 1209 -44 
Q 966 3 703 97 
z
M 1959 2075 
Q 2384 2075 2632 2365 
Q 2881 2656 2881 3163 
Q 2881 3666 2632 3958 
Q 2384 4250 1959 4250 
Q 1534 4250 1286 3958 
Q 1038 3666 1038 3163 
Q 1038 2656 1286 2365 
Q 1534 2075 1959 2075 
z
" transform="scale(0.015625)"/>
       </defs>
       <use xlink:href="#DejaVuSans-39" transform="translate(0 0.684375)"/>
       <use xlink:href="#DejaVuSans-d7" transform="translate(83.105469 0.684375)"/>
       <use xlink:href="#DejaVuSans-31" transform="translate(186.376953 0.684375)"/>
       <use xlink:href="#DejaVuSans-30" transform="translate(250 0.684375)"/>
       <use xlink:href="#DejaVuSans-2212" transform="translate(314.580078 38.965625) scale(0.7)"/>
       <use xlink:href="#DejaVuSans-31" transform="translate(373.232422 38.965625) scale(0.7)"/>
      </g>
     </g>
    </g>
    <g id="text_8">
     <!-- MSE -->
     <g transform="translate(-26.579687 119.727656) rotate(-90) scale(0.1 -0.1)">
      <defs>
       <path id="DejaVuSans-4d" d="M 628 4666 
L 1569 4666 
L 2759 1491 
L 3956 4666 
L 4897 4666 
L 4897 0 
L 4281 0 
L 4281 4097 
L 3078 897 
L 2444 897 
L 1241 4097 
L 1241 0 
L 628 0 
L 628 4666 
z
" transform="scale(0.015625)"/>
       <path id="DejaVuSans-53" d="M 3425 4513 
L 3425 3897 
Q 3066 4069 2747 4153 
Q 2428 4238 2131 4238 
Q 1616 4238 1336 4038 
Q 1056 3838 1056 3469 
Q 1056 3159 1242 3001 
Q 1428 2844 1947 2747 
L 2328 2669 
Q 3034 2534 3370 2195 
Q 3706 1856 3706 1288 
Q 3706 609 3251 259 
Q 2797 -91 1919 -91 
Q 1588 -91 1214 -16 
Q 841 59 441 206 
L 441 856 
Q 825 641 1194 531 
Q 1563 422 1919 422 
Q 2459 422 2753 634 
Q 3047 847 3047 1241 
Q 3047 1584 2836 1778 
Q 2625 1972 2144 2069 
L 1759 2144 
Q 1053 2284 737 2584 
Q 422 2884 422 3419 
Q 422 4038 858 4394 
Q 1294 4750 2059 4750 
Q 2388 4750 2728 4690 
Q 3069 4631 3425 4513 
z
" transform="scale(0.015625)"/>
       <path id="DejaVuSans-45" d="M 628 4666 
L 3578 4666 
L 3578 4134 
L 1259 4134 
L 1259 2753 
L 3481 2753 
L 3481 2222 
L 1259 2222 
L 1259 531 
L 3634 531 
L 3634 0 
L 628 0 
L 628 4666 
z
" transform="scale(0.015625)"/>
      </defs>
      <use xlink:href="#DejaVuSans-4d"/>
      <use xlink:href="#DejaVuSans-53" x="86.279297"/>
      <use xlink:href="#DejaVuSans-45" x="149.755859"/>
     </g>
    </g>
   </g>
   <g id="line2d_8">
    <path d="M 34.609091 62.382346 
L 38.613876 68.574637 
L 42.61866 97.956689 
L 46.623445 73.404032 
L 50.62823 56.110667 
L 54.633014 74.854979 
L 58.637799 129.356665 
L 62.642584 145.676938 
L 66.647368 164.936174 
L 70.652153 112.982564 
L 74.656938 85.448846 
L 78.661722 153.355041 
L 82.666507 133.454573 
L 86.671292 120.298871 
L 90.676077 121.400494 
L 94.680861 101.384373 
L 98.685646 142.946538 
L 102.690431 95.928882 
L 106.695215 184.68 
L 110.7 144.261286 
L 114.704785 125.698739 
L 118.709569 184.584964 
L 122.714354 98.359156 
L 126.719139 119.944109 
L 130.723923 105.378728 
L 134.728708 119.20375 
L 138.733493 123.182517 
L 142.738278 124.627066 
L 146.743062 131.277333 
L 150.747847 85.899788 
L 154.752632 143.007619 
L 158.757416 96.273023 
L 162.762201 82.236391 
L 166.766986 162.87328 
L 170.77177 102.102158 
L 174.776555 134.622653 
L 178.78134 127.293764 
L 182.786124 156.361912 
L 186.790909 144.498155 
" clip-path="url(#p709e93cf99)" style="fill: none; stroke: #ff0000; stroke-width: 1.5; stroke-linecap: square"/>
    <defs>
     <path id="mfd5b7c66aa" d="M 0 1.5 
C 0.397805 1.5 0.77937 1.341951 1.06066 1.06066 
C 1.341951 0.77937 1.5 0.397805 1.5 0 
C 1.5 -0.397805 1.341951 -0.77937 1.06066 -1.06066 
C 0.77937 -1.341951 0.397805 -1.5 0 -1.5 
C -0.397805 -1.5 -0.77937 -1.341951 -1.06066 -1.06066 
C -1.341951 -0.77937 -1.5 -0.397805 -1.5 0 
C -1.5 0.397805 -1.341951 0.77937 -1.06066 1.06066 
C -0.77937 1.341951 -0.397805 1.5 0 1.5 
z
" style="stroke: #ff0000"/>
    </defs>
    <g clip-path="url(#p709e93cf99)">
     <use xlink:href="#mfd5b7c66aa" x="34.609091" y="62.382346" style="fill: #ff0000; stroke: #ff0000"/>
     <use xlink:href="#mfd5b7c66aa" x="38.613876" y="68.574637" style="fill: #ff0000; stroke: #ff0000"/>
     <use xlink:href="#mfd5b7c66aa" x="42.61866" y="97.956689" style="fill: #ff0000; stroke: #ff0000"/>
     <use xlink:href="#mfd5b7c66aa" x="46.623445" y="73.404032" style="fill: #ff0000; stroke: #ff0000"/>
     <use xlink:href="#mfd5b7c66aa" x="50.62823" y="56.110667" style="fill: #ff0000; stroke: #ff0000"/>
     <use xlink:href="#mfd5b7c66aa" x="54.633014" y="74.854979" style="fill: #ff0000; stroke: #ff0000"/>
     <use xlink:href="#mfd5b7c66aa" x="58.637799" y="129.356665" style="fill: #ff0000; stroke: #ff0000"/>
     <use xlink:href="#mfd5b7c66aa" x="62.642584" y="145.676938" style="fill: #ff0000; stroke: #ff0000"/>
     <use xlink:href="#mfd5b7c66aa" x="66.647368" y="164.936174" style="fill: #ff0000; stroke: #ff0000"/>
     <use xlink:href="#mfd5b7c66aa" x="70.652153" y="112.982564" style="fill: #ff0000; stroke: #ff0000"/>
     <use xlink:href="#mfd5b7c66aa" x="74.656938" y="85.448846" style="fill: #ff0000; stroke: #ff0000"/>
     <use xlink:href="#mfd5b7c66aa" x="78.661722" y="153.355041" style="fill: #ff0000; stroke: #ff0000"/>
     <use xlink:href="#mfd5b7c66aa" x="82.666507" y="133.454573" style="fill: #ff0000; stroke: #ff0000"/>
     <use xlink:href="#mfd5b7c66aa" x="86.671292" y="120.298871" style="fill: #ff0000; stroke: #ff0000"/>
     <use xlink:href="#mfd5b7c66aa" x="90.676077" y="121.400494" style="fill: #ff0000; stroke: #ff0000"/>
     <use xlink:href="#mfd5b7c66aa" x="94.680861" y="101.384373" style="fill: #ff0000; stroke: #ff0000"/>
     <use xlink:href="#mfd5b7c66aa" x="98.685646" y="142.946538" style="fill: #ff0000; stroke: #ff0000"/>
     <use xlink:href="#mfd5b7c66aa" x="102.690431" y="95.928882" style="fill: #ff0000; stroke: #ff0000"/>
     <use xlink:href="#mfd5b7c66aa" x="106.695215" y="184.68" style="fill: #ff0000; stroke: #ff0000"/>
     <use xlink:href="#mfd5b7c66aa" x="110.7" y="144.261286" style="fill: #ff0000; stroke: #ff0000"/>
     <use xlink:href="#mfd5b7c66aa" x="114.704785" y="125.698739" style="fill: #ff0000; stroke: #ff0000"/>
     <use xlink:href="#mfd5b7c66aa" x="118.709569" y="184.584964" style="fill: #ff0000; stroke: #ff0000"/>
     <use xlink:href="#mfd5b7c66aa" x="122.714354" y="98.359156" style="fill: #ff0000; stroke: #ff0000"/>
     <use xlink:href="#mfd5b7c66aa" x="126.719139" y="119.944109" style="fill: #ff0000; stroke: #ff0000"/>
     <use xlink:href="#mfd5b7c66aa" x="130.723923" y="105.378728" style="fill: #ff0000; stroke: #ff0000"/>
     <use xlink:href="#mfd5b7c66aa" x="134.728708" y="119.20375" style="fill: #ff0000; stroke: #ff0000"/>
     <use xlink:href="#mfd5b7c66aa" x="138.733493" y="123.182517" style="fill: #ff0000; stroke: #ff0000"/>
     <use xlink:href="#mfd5b7c66aa" x="142.738278" y="124.627066" style="fill: #ff0000; stroke: #ff0000"/>
     <use xlink:href="#mfd5b7c66aa" x="146.743062" y="131.277333" style="fill: #ff0000; stroke: #ff0000"/>
     <use xlink:href="#mfd5b7c66aa" x="150.747847" y="85.899788" style="fill: #ff0000; stroke: #ff0000"/>
     <use xlink:href="#mfd5b7c66aa" x="154.752632" y="143.007619" style="fill: #ff0000; stroke: #ff0000"/>
     <use xlink:href="#mfd5b7c66aa" x="158.757416" y="96.273023" style="fill: #ff0000; stroke: #ff0000"/>
     <use xlink:href="#mfd5b7c66aa" x="162.762201" y="82.236391" style="fill: #ff0000; stroke: #ff0000"/>
     <use xlink:href="#mfd5b7c66aa" x="166.766986" y="162.87328" style="fill: #ff0000; stroke: #ff0000"/>
     <use xlink:href="#mfd5b7c66aa" x="170.77177" y="102.102158" style="fill: #ff0000; stroke: #ff0000"/>
     <use xlink:href="#mfd5b7c66aa" x="174.776555" y="134.622653" style="fill: #ff0000; stroke: #ff0000"/>
     <use xlink:href="#mfd5b7c66aa" x="178.78134" y="127.293764" style="fill: #ff0000; stroke: #ff0000"/>
     <use xlink:href="#mfd5b7c66aa" x="182.786124" y="156.361912" style="fill: #ff0000; stroke: #ff0000"/>
     <use xlink:href="#mfd5b7c66aa" x="186.790909" y="144.498155" style="fill: #ff0000; stroke: #ff0000"/>
    </g>
   </g>
   <g id="line2d_9">
    <path d="M 34.609091 35.407963 
L 38.613876 33.48 
L 42.61866 40.012053 
L 46.623445 64.677125 
L 50.62823 80.004781 
L 54.633014 88.808247 
L 58.637799 108.100846 
L 62.642584 114.773499 
L 66.647368 110.373372 
L 70.652153 112.075405 
L 74.656938 124.780913 
L 78.661722 124.474101 
L 82.666507 122.933091 
L 86.671292 117.522765 
L 90.676077 112.551346 
L 94.680861 113.075023 
L 98.685646 127.646255 
L 102.690431 114.168312 
L 106.695215 125.824487 
L 110.7 105.746188 
L 114.704785 113.806081 
L 118.709569 127.167107 
L 122.714354 122.831076 
L 126.719139 134.015869 
L 130.723923 129.652245 
L 134.728708 128.928333 
L 138.733493 126.070967 
L 142.738278 135.709917 
L 146.743062 113.66673 
L 150.747847 114.8678 
L 154.752632 138.695611 
L 158.757416 124.052459 
L 162.762201 124.595817 
L 166.766986 130.32762 
L 170.77177 132.368772 
L 174.776555 123.505701 
L 178.78134 130.979168 
L 182.786124 132.77521 
L 186.790909 127.871744 
" clip-path="url(#p709e93cf99)" style="fill: none; stroke: #ffa500; stroke-width: 1.5; stroke-linecap: square"/>
    <defs>
     <path id="mb3f964c2a6" d="M 0 1.5 
C 0.397805 1.5 0.77937 1.341951 1.06066 1.06066 
C 1.341951 0.77937 1.5 0.397805 1.5 0 
C 1.5 -0.397805 1.341951 -0.77937 1.06066 -1.06066 
C 0.77937 -1.341951 0.397805 -1.5 0 -1.5 
C -0.397805 -1.5 -0.77937 -1.341951 -1.06066 -1.06066 
C -1.341951 -0.77937 -1.5 -0.397805 -1.5 0 
C -1.5 0.397805 -1.341951 0.77937 -1.06066 1.06066 
C -0.77937 1.341951 -0.397805 1.5 0 1.5 
z
" style="stroke: #ffa500"/>
    </defs>
    <g clip-path="url(#p709e93cf99)">
     <use xlink:href="#mb3f964c2a6" x="34.609091" y="35.407963" style="fill: #ffa500; stroke: #ffa500"/>
     <use xlink:href="#mb3f964c2a6" x="38.613876" y="33.48" style="fill: #ffa500; stroke: #ffa500"/>
     <use xlink:href="#mb3f964c2a6" x="42.61866" y="40.012053" style="fill: #ffa500; stroke: #ffa500"/>
     <use xlink:href="#mb3f964c2a6" x="46.623445" y="64.677125" style="fill: #ffa500; stroke: #ffa500"/>
     <use xlink:href="#mb3f964c2a6" x="50.62823" y="80.004781" style="fill: #ffa500; stroke: #ffa500"/>
     <use xlink:href="#mb3f964c2a6" x="54.633014" y="88.808247" style="fill: #ffa500; stroke: #ffa500"/>
     <use xlink:href="#mb3f964c2a6" x="58.637799" y="108.100846" style="fill: #ffa500; stroke: #ffa500"/>
     <use xlink:href="#mb3f964c2a6" x="62.642584" y="114.773499" style="fill: #ffa500; stroke: #ffa500"/>
     <use xlink:href="#mb3f964c2a6" x="66.647368" y="110.373372" style="fill: #ffa500; stroke: #ffa500"/>
     <use xlink:href="#mb3f964c2a6" x="70.652153" y="112.075405" style="fill: #ffa500; stroke: #ffa500"/>
     <use xlink:href="#mb3f964c2a6" x="74.656938" y="124.780913" style="fill: #ffa500; stroke: #ffa500"/>
     <use xlink:href="#mb3f964c2a6" x="78.661722" y="124.474101" style="fill: #ffa500; stroke: #ffa500"/>
     <use xlink:href="#mb3f964c2a6" x="82.666507" y="122.933091" style="fill: #ffa500; stroke: #ffa500"/>
     <use xlink:href="#mb3f964c2a6" x="86.671292" y="117.522765" style="fill: #ffa500; stroke: #ffa500"/>
     <use xlink:href="#mb3f964c2a6" x="90.676077" y="112.551346" style="fill: #ffa500; stroke: #ffa500"/>
     <use xlink:href="#mb3f964c2a6" x="94.680861" y="113.075023" style="fill: #ffa500; stroke: #ffa500"/>
     <use xlink:href="#mb3f964c2a6" x="98.685646" y="127.646255" style="fill: #ffa500; stroke: #ffa500"/>
     <use xlink:href="#mb3f964c2a6" x="102.690431" y="114.168312" style="fill: #ffa500; stroke: #ffa500"/>
     <use xlink:href="#mb3f964c2a6" x="106.695215" y="125.824487" style="fill: #ffa500; stroke: #ffa500"/>
     <use xlink:href="#mb3f964c2a6" x="110.7" y="105.746188" style="fill: #ffa500; stroke: #ffa500"/>
     <use xlink:href="#mb3f964c2a6" x="114.704785" y="113.806081" style="fill: #ffa500; stroke: #ffa500"/>
     <use xlink:href="#mb3f964c2a6" x="118.709569" y="127.167107" style="fill: #ffa500; stroke: #ffa500"/>
     <use xlink:href="#mb3f964c2a6" x="122.714354" y="122.831076" style="fill: #ffa500; stroke: #ffa500"/>
     <use xlink:href="#mb3f964c2a6" x="126.719139" y="134.015869" style="fill: #ffa500; stroke: #ffa500"/>
     <use xlink:href="#mb3f964c2a6" x="130.723923" y="129.652245" style="fill: #ffa500; stroke: #ffa500"/>
     <use xlink:href="#mb3f964c2a6" x="134.728708" y="128.928333" style="fill: #ffa500; stroke: #ffa500"/>
     <use xlink:href="#mb3f964c2a6" x="138.733493" y="126.070967" style="fill: #ffa500; stroke: #ffa500"/>
     <use xlink:href="#mb3f964c2a6" x="142.738278" y="135.709917" style="fill: #ffa500; stroke: #ffa500"/>
     <use xlink:href="#mb3f964c2a6" x="146.743062" y="113.66673" style="fill: #ffa500; stroke: #ffa500"/>
     <use xlink:href="#mb3f964c2a6" x="150.747847" y="114.8678" style="fill: #ffa500; stroke: #ffa500"/>
     <use xlink:href="#mb3f964c2a6" x="154.752632" y="138.695611" style="fill: #ffa500; stroke: #ffa500"/>
     <use xlink:href="#mb3f964c2a6" x="158.757416" y="124.052459" style="fill: #ffa500; stroke: #ffa500"/>
     <use xlink:href="#mb3f964c2a6" x="162.762201" y="124.595817" style="fill: #ffa500; stroke: #ffa500"/>
     <use xlink:href="#mb3f964c2a6" x="166.766986" y="130.32762" style="fill: #ffa500; stroke: #ffa500"/>
     <use xlink:href="#mb3f964c2a6" x="170.77177" y="132.368772" style="fill: #ffa500; stroke: #ffa500"/>
     <use xlink:href="#mb3f964c2a6" x="174.776555" y="123.505701" style="fill: #ffa500; stroke: #ffa500"/>
     <use xlink:href="#mb3f964c2a6" x="178.78134" y="130.979168" style="fill: #ffa500; stroke: #ffa500"/>
     <use xlink:href="#mb3f964c2a6" x="182.786124" y="132.77521" style="fill: #ffa500; stroke: #ffa500"/>
     <use xlink:href="#mb3f964c2a6" x="186.790909" y="127.871744" style="fill: #ffa500; stroke: #ffa500"/>
    </g>
   </g>
   <g id="patch_4">
    <path d="M 27 192.24 
L 27 25.92 
" style="fill: none; stroke: #000000; stroke-width: 0.8; stroke-linejoin: miter; stroke-linecap: square"/>
   </g>
   <g id="patch_5">
    <path d="M 194.4 192.24 
L 194.4 25.92 
" style="fill: none; stroke: #000000; stroke-width: 0.8; stroke-linejoin: miter; stroke-linecap: square"/>
   </g>
   <g id="patch_6">
    <path d="M 27 192.24 
L 194.4 192.24 
" style="fill: none; stroke: #000000; stroke-width: 0.8; stroke-linejoin: miter; stroke-linecap: square"/>
   </g>
   <g id="patch_7">
    <path d="M 27 25.92 
L 194.4 25.92 
" style="fill: none; stroke: #000000; stroke-width: 0.8; stroke-linejoin: miter; stroke-linecap: square"/>
   </g>
   <g id="legend_1">
    <g id="patch_8">
     <path d="M 106.165625 63.27625 
L 187.4 63.27625 
Q 189.4 63.27625 189.4 61.27625 
L 189.4 32.92 
Q 189.4 30.92 187.4 30.92 
L 106.165625 30.92 
Q 104.165625 30.92 104.165625 32.92 
L 104.165625 61.27625 
Q 104.165625 63.27625 106.165625 63.27625 
z
" style="fill: #ffffff; opacity: 0.8; stroke: #cccccc; stroke-linejoin: miter"/>
    </g>
    <g id="line2d_10">
     <path d="M 108.165625 39.018437 
L 118.165625 39.018437 
L 128.165625 39.018437 
" style="fill: none; stroke: #ff0000; stroke-width: 1.5; stroke-linecap: square"/>
     <g>
      <use xlink:href="#mfd5b7c66aa" x="118.165625" y="39.018437" style="fill: #ff0000; stroke: #ff0000"/>
     </g>
    </g>
    <g id="text_9">
     <!-- validation -->
     <g transform="translate(136.165625 42.518437) scale(0.1 -0.1)">
      <defs>
       <path id="DejaVuSans-76" d="M 191 3500 
L 800 3500 
L 1894 563 
L 2988 3500 
L 3597 3500 
L 2284 0 
L 1503 0 
L 191 3500 
z
" transform="scale(0.015625)"/>
       <path id="DejaVuSans-61" d="M 2194 1759 
Q 1497 1759 1228 1600 
Q 959 1441 959 1056 
Q 959 750 1161 570 
Q 1363 391 1709 391 
Q 2188 391 2477 730 
Q 2766 1069 2766 1631 
L 2766 1759 
L 2194 1759 
z
M 3341 1997 
L 3341 0 
L 2766 0 
L 2766 531 
Q 2569 213 2275 61 
Q 1981 -91 1556 -91 
Q 1019 -91 701 211 
Q 384 513 384 1019 
Q 384 1609 779 1909 
Q 1175 2209 1959 2209 
L 2766 2209 
L 2766 2266 
Q 2766 2663 2505 2880 
Q 2244 3097 1772 3097 
Q 1472 3097 1187 3025 
Q 903 2953 641 2809 
L 641 3341 
Q 956 3463 1253 3523 
Q 1550 3584 1831 3584 
Q 2591 3584 2966 3190 
Q 3341 2797 3341 1997 
z
" transform="scale(0.015625)"/>
       <path id="DejaVuSans-6c" d="M 603 4863 
L 1178 4863 
L 1178 0 
L 603 0 
L 603 4863 
z
" transform="scale(0.015625)"/>
       <path id="DejaVuSans-69" d="M 603 3500 
L 1178 3500 
L 1178 0 
L 603 0 
L 603 3500 
z
M 603 4863 
L 1178 4863 
L 1178 4134 
L 603 4134 
L 603 4863 
z
" transform="scale(0.015625)"/>
       <path id="DejaVuSans-64" d="M 2906 2969 
L 2906 4863 
L 3481 4863 
L 3481 0 
L 2906 0 
L 2906 525 
Q 2725 213 2448 61 
Q 2172 -91 1784 -91 
Q 1150 -91 751 415 
Q 353 922 353 1747 
Q 353 2572 751 3078 
Q 1150 3584 1784 3584 
Q 2172 3584 2448 3432 
Q 2725 3281 2906 2969 
z
M 947 1747 
Q 947 1113 1208 752 
Q 1469 391 1925 391 
Q 2381 391 2643 752 
Q 2906 1113 2906 1747 
Q 2906 2381 2643 2742 
Q 2381 3103 1925 3103 
Q 1469 3103 1208 2742 
Q 947 2381 947 1747 
z
" transform="scale(0.015625)"/>
       <path id="DejaVuSans-74" d="M 1172 4494 
L 1172 3500 
L 2356 3500 
L 2356 3053 
L 1172 3053 
L 1172 1153 
Q 1172 725 1289 603 
Q 1406 481 1766 481 
L 2356 481 
L 2356 0 
L 1766 0 
Q 1100 0 847 248 
Q 594 497 594 1153 
L 594 3053 
L 172 3053 
L 172 3500 
L 594 3500 
L 594 4494 
L 1172 4494 
z
" transform="scale(0.015625)"/>
       <path id="DejaVuSans-6f" d="M 1959 3097 
Q 1497 3097 1228 2736 
Q 959 2375 959 1747 
Q 959 1119 1226 758 
Q 1494 397 1959 397 
Q 2419 397 2687 759 
Q 2956 1122 2956 1747 
Q 2956 2369 2687 2733 
Q 2419 3097 1959 3097 
z
M 1959 3584 
Q 2709 3584 3137 3096 
Q 3566 2609 3566 1747 
Q 3566 888 3137 398 
Q 2709 -91 1959 -91 
Q 1206 -91 779 398 
Q 353 888 353 1747 
Q 353 2609 779 3096 
Q 1206 3584 1959 3584 
z
" transform="scale(0.015625)"/>
       <path id="DejaVuSans-6e" d="M 3513 2113 
L 3513 0 
L 2938 0 
L 2938 2094 
Q 2938 2591 2744 2837 
Q 2550 3084 2163 3084 
Q 1697 3084 1428 2787 
Q 1159 2491 1159 1978 
L 1159 0 
L 581 0 
L 581 3500 
L 1159 3500 
L 1159 2956 
Q 1366 3272 1645 3428 
Q 1925 3584 2291 3584 
Q 2894 3584 3203 3211 
Q 3513 2838 3513 2113 
z
" transform="scale(0.015625)"/>
      </defs>
      <use xlink:href="#DejaVuSans-76"/>
      <use xlink:href="#DejaVuSans-61" x="59.179688"/>
      <use xlink:href="#DejaVuSans-6c" x="120.458984"/>
      <use xlink:href="#DejaVuSans-69" x="148.242188"/>
      <use xlink:href="#DejaVuSans-64" x="176.025391"/>
      <use xlink:href="#DejaVuSans-61" x="239.501953"/>
      <use xlink:href="#DejaVuSans-74" x="300.78125"/>
      <use xlink:href="#DejaVuSans-69" x="339.990234"/>
      <use xlink:href="#DejaVuSans-6f" x="367.773438"/>
      <use xlink:href="#DejaVuSans-6e" x="428.955078"/>
     </g>
    </g>
    <g id="line2d_11">
     <path d="M 108.165625 53.696562 
L 118.165625 53.696562 
L 128.165625 53.696562 
" style="fill: none; stroke: #ffa500; stroke-width: 1.5; stroke-linecap: square"/>
     <g>
      <use xlink:href="#mb3f964c2a6" x="118.165625" y="53.696562" style="fill: #ffa500; stroke: #ffa500"/>
     </g>
    </g>
    <g id="text_10">
     <!-- train -->
     <g transform="translate(136.165625 57.196562) scale(0.1 -0.1)">
      <defs>
       <path id="DejaVuSans-72" d="M 2631 2963 
Q 2534 3019 2420 3045 
Q 2306 3072 2169 3072 
Q 1681 3072 1420 2755 
Q 1159 2438 1159 1844 
L 1159 0 
L 581 0 
L 581 3500 
L 1159 3500 
L 1159 2956 
Q 1341 3275 1631 3429 
Q 1922 3584 2338 3584 
Q 2397 3584 2469 3576 
Q 2541 3569 2628 3553 
L 2631 2963 
z
" transform="scale(0.015625)"/>
      </defs>
      <use xlink:href="#DejaVuSans-74"/>
      <use xlink:href="#DejaVuSans-72" x="39.208984"/>
      <use xlink:href="#DejaVuSans-61" x="80.322266"/>
      <use xlink:href="#DejaVuSans-69" x="141.601562"/>
      <use xlink:href="#DejaVuSans-6e" x="169.384766"/>
     </g>
    </g>
   </g>
  </g>
 </g>
 <defs>
  <clipPath id="p709e93cf99">
   <rect x="27" y="25.92" width="167.4" height="166.32"/>
  </clipPath>
 </defs>
</svg>
